<svg width="16" height="17" viewBox="0 0 16 17" fill="none" xmlns="http://www.w3.org/2000/svg">
<g clip-path="url(#clip0_85_75)">
<path d="M0.855774 14.2932V15.7909C0.855774 15.9126 0.904158 16.0293 0.990218 16.1154C1.07628 16.2015 1.19301 16.2498 1.31472 16.2498H3.93465C4.05635 16.2498 4.17311 16.2015 4.25915 16.1154C4.34523 16.0293 4.39351 15.9126 4.39351 15.7909V14.2932H0.855774Z" fill="#010818"/>
<path d="M2.75826 0.271792C2.68454 0.242736 2.60251 0.242736 2.52879 0.271792C0.897594 0.98518 0.860046 3.35062 0.860046 3.35062V12.9208H4.39777V3.35062C4.39777 3.35062 4.37277 0.993524 2.75826 0.271792Z" fill="#010818"/>
<path d="M6.0625 14.2932V15.7909C6.06254 15.9126 6.1109 16.0293 6.19698 16.1154C6.28302 16.2015 6.39974 16.2498 6.52146 16.2498H9.14558C9.26694 16.2487 9.38302 16.2001 9.46886 16.1142C9.5547 16.0284 9.60334 15.9123 9.60442 15.7909V14.2932H6.0625Z" fill="#010818"/>
<path d="M7.94831 0.271792C7.87459 0.242736 7.79259 0.242736 7.71887 0.271792C6.08767 0.98518 6.05011 3.35062 6.05011 3.35062V12.9208H9.59203V3.35062C9.59203 3.35062 9.57951 0.993524 7.94831 0.271792Z" fill="#010818"/>
<path d="M11.2689 14.2932V15.7909C11.2689 15.9126 11.3172 16.0293 11.4033 16.1154C11.4893 16.2015 11.6061 16.2498 11.7278 16.2498H14.3519C14.4736 16.2498 14.5903 16.2015 14.6764 16.1154C14.7625 16.0293 14.8107 15.9126 14.8107 15.7909V14.2932H11.2689Z" fill="#010818"/>
<path d="M13.1547 0.271792C13.0809 0.242736 12.999 0.242736 12.9253 0.271792C11.2941 0.98518 11.2565 3.35062 11.2565 3.35062V12.9208H14.7985V3.35062C14.7985 3.35062 14.7859 0.993524 13.1547 0.271792Z" fill="#010818"/>
</g>
<defs>
<clipPath id="clip0_85_75">
<rect width="16" height="16" fill="white" transform="translate(0 0.25)"/>
</clipPath>
</defs>
</svg>
