<svg width="16" height="17" viewBox="0 0 16 17" fill="none" xmlns="http://www.w3.org/2000/svg">
<g clip-path="url(#clip0_85_84)">
<path fill-rule="evenodd" clip-rule="evenodd" d="M15.5782 5.33532H11.0835C11.0384 5.33432 10.9954 5.31572 10.9639 5.28344C10.9324 5.2512 10.9146 5.20788 10.9146 5.16276V0.671856C10.9146 0.559972 10.8703 0.452671 10.7912 0.373557C10.712 0.294442 10.6047 0.25 10.4928 0.25H5.50724C5.39536 0.25 5.28804 0.294442 5.20892 0.373557C5.1298 0.452671 5.08532 0.559972 5.08532 0.671856V5.16276C5.08532 5.20852 5.06712 5.2524 5.03476 5.28476C5.0024 5.31716 4.95856 5.33532 4.91276 5.33532H0.421896C0.310013 5.33532 0.202706 5.37976 0.123592 5.45888C0.0444776 5.538 0 5.64532 0 5.7572V10.7428C0 10.8547 0.0444776 10.962 0.123592 11.0411C0.202706 11.1202 0.310013 11.1647 0.421896 11.1647H4.91276C4.95856 11.1647 5.0024 11.1828 5.03476 11.2152C5.06712 11.2476 5.08532 11.2915 5.08532 11.3372V15.8281C5.08532 15.94 5.1298 16.0473 5.20892 16.1264C5.28804 16.2056 5.39536 16.25 5.50724 16.25H10.4928C10.6047 16.25 10.712 16.2056 10.7912 16.1264C10.8703 16.0473 10.9146 15.94 10.9146 15.8281V11.3449C10.9146 11.2998 10.9324 11.2565 10.9639 11.2242C10.9954 11.192 11.0384 11.1733 11.0835 11.1723H15.5782C15.6901 11.1723 15.7974 11.1279 15.8765 11.0488C15.9556 10.9697 16 10.8624 16 10.7505V5.76484C16.001 5.7088 15.9909 5.65312 15.9701 5.60108C15.9494 5.549 15.9185 5.50156 15.8792 5.4616C15.8399 5.4216 15.7931 5.38984 15.7414 5.36816C15.6897 5.34648 15.6342 5.33532 15.5782 5.33532Z" fill="#010818"/>
</g>
<defs>
<clipPath id="clip0_85_84">
<rect width="16" height="16" fill="white" transform="translate(0 0.25)"/>
</clipPath>
</defs>
</svg>
