<svg width="16" height="17" viewBox="0 0 16 17" fill="none" xmlns="http://www.w3.org/2000/svg">
<g clip-path="url(#clip0_85_71)">
<path d="M14.7212 2.60093C14.7572 1.17693 13.6251 0.960932 12.6611 0.720932C11.1856 0.383267 9.67452 0.226116 8.16112 0.252933C6.64772 0.226116 5.13664 0.383267 3.66112 0.720932C2.69712 0.960932 1.56516 1.17693 1.60116 2.60093C1.65316 4.56892 1.60116 6.53692 1.60116 8.50492C1.59114 8.82956 1.66705 9.15104 1.82118 9.43692C3.25753 12.0652 5.28388 14.3244 7.74108 16.0369C7.85508 16.1291 7.99484 16.1836 8.14108 16.1929C8.28736 16.1836 8.42712 16.1291 8.54108 16.0369C10.9983 14.3244 13.0248 12.0652 14.4611 9.43692C14.6152 9.15104 14.6912 8.82956 14.6811 8.50492C14.7091 6.53692 14.6692 4.56892 14.7212 2.60093Z" fill="#010818"/>
</g>
<defs>
<clipPath id="clip0_85_71">
<rect width="16" height="16" fill="white" transform="translate(0 0.25)"/>
</clipPath>
</defs>
</svg>
