<svg xmlns="http://www.w3.org/2000/svg" version="1.1" xmlns:xlink="http://www.w3.org/1999/xlink" xmlns:svgjs="http://svgjs.dev/svgjs" width="32" height="32"><svg width="32" height="32" viewBox="0 0 32 32" fill="none" xmlns="http://www.w3.org/2000/svg">
<path d="M7.37262 0.008143C7.7403 0.00370678 7.92415 0.00148867 8.02168 0.120957C8.11921 0.240426 8.08013 0.420622 8.00197 0.781013L4.88569 15.1505C4.78926 15.5952 4.74105 15.8175 4.57085 15.8762C4.40066 15.935 4.22891 15.7924 3.88541 15.5074C2.39465 14.2702 1.12899 12.9198 0.130752 11.6289C0.0664838 11.5458 0.0343497 11.5042 0.0171748 11.4539C0 11.4036 0 11.3501 0 11.2429V9.6C0 5.07452 0 2.81177 1.40589 1.40589C2.55929 0.252481 4.28943 0.0453426 7.37262 0.008143Z" fill="#010818"></path>
<path d="M10.4883 0C10.241 0 10.1174 0 10.0294 0.0708989C9.94151 0.141798 9.9153 0.262651 9.86288 0.504358L7.5444 11.1952C7.13398 13.0876 6.92877 14.0339 7.17825 14.1351C7.42773 14.2363 7.94707 13.4031 8.98574 11.7366C11.9368 7.00178 15.7242 2.92008 20.4559 0.910051C21.1364 0.621003 21.7934 0.381396 22.4261 0.189446C22.526 0.159132 22.5044 0 22.4 0H10.4883Z" fill="#010818"></path>
<path d="M32 14.7144C32 13.4459 32 12.8117 31.7739 12.7422C31.5479 12.6728 31.1763 13.2208 30.4331 14.3169C28.4541 17.2354 25.313 19.8024 21.0605 21.1205C19.1828 21.7026 17.3626 21.9522 15.6185 21.9392C14.0819 21.9278 13.3136 21.9221 13.2519 22.1652C13.1901 22.4082 13.836 22.7528 15.1278 23.4421C19.4144 25.729 24.5668 27.9094 30.6659 29.7444C30.8999 29.8148 31.0168 29.85 31.1271 29.799C31.2373 29.748 31.2816 29.6467 31.37 29.4441C32 28.0011 32 25.8631 32 22.4V14.7144Z" fill="#010818"></path>
<path d="M28.1316 31.7512C28.7188 31.644 29.0124 31.5904 29.029 31.3416C29.0455 31.0928 28.7391 30.9935 28.1263 30.7949C20.5899 28.3525 14.5323 25.388 9.79901 22.3711C8.92008 21.8109 8.08586 21.2482 7.29559 20.686C6.98795 20.4672 6.83413 20.3578 6.68522 20.4014C6.53632 20.4449 6.4668 20.6173 6.32778 20.9621C5.30915 23.4883 4.4777 26.0071 3.82444 28.3483L3.25017 30.9963C3.18974 31.275 3.15953 31.4143 3.23259 31.5263C3.30565 31.6383 3.43708 31.6651 3.69992 31.7186C5.08001 32 6.95292 32 9.6 32H22.4C24.9409 32 26.7685 32 28.1316 31.7512Z" fill="#010818"></path>
<path d="M1.40589 30.5941C1.41352 30.6018 1.42654 30.598 1.42903 30.5875C1.63156 29.7327 1.86013 28.8422 2.11527 27.9253L4.11824 18.6893C4.15823 18.505 4.17822 18.4128 4.14963 18.3287C4.12104 18.2446 4.0483 18.1832 3.90283 18.0602C2.88118 17.1969 1.96375 16.3463 1.14764 15.5199C0.647163 15.0132 0.396927 14.7598 0.198463 14.8413C0 14.9228 0 15.2736 0 15.9753L0 22.4C0 26.9255 0 29.1882 1.40589 30.5941Z" fill="#010818"></path>
<path d="M7.81169 17.575C7.73303 17.7404 7.6937 17.823 7.69858 17.9052C7.70194 17.9617 7.72177 18.0198 7.75369 18.0666C7.80005 18.1345 7.8805 18.1753 8.04139 18.2567C11.6305 20.0743 15.8982 20.8781 20.5395 19.4395C27.6127 17.247 31.1333 11.3203 31.17 6.85277C31.1883 4.62959 30.3577 2.89242 28.8428 2.01851C27.3103 1.13445 24.8063 0.974212 21.1441 2.52995C15.3824 4.97753 10.966 10.9428 7.81169 17.575Z" fill="#010818"></path>
</svg><style>@media (prefers-color-scheme: light) { :root { filter: none; } }
@media (prefers-color-scheme: dark) { :root { filter: invert(100%); } }
</style></svg>